<svg width="17" height="17" viewBox="0 0 17 17" fill="none" xmlns="http://www.w3.org/2000/svg">
<path d="M10.2875 3.75C11.0201 3.89292 11.6933 4.25119 12.2211 4.77895C12.7488 5.30671 13.1071 5.97995 13.25 6.7125L10.2875 3.75ZM10.2875 0.75C11.8095 0.919077 13.2287 1.60063 14.3122 2.68276C15.3957 3.76488 16.079 5.18326 16.25 6.705L10.2875 0.75ZM15.5 12.69V14.94C15.5009 15.1489 15.4581 15.3556 15.3744 15.547C15.2907 15.7384 15.168 15.9102 15.0141 16.0514C14.8602 16.1926 14.6784 16.3001 14.4806 16.367C14.2827 16.4339 14.073 16.4588 13.865 16.44C11.5571 16.1892 9.34026 15.4006 7.39251 14.1375C5.58038 12.986 4.04401 11.4496 2.89251 9.6375C1.62499 7.6809 0.836193 5.45325 0.590011 3.135C0.571269 2.9276 0.595917 2.71857 0.662386 2.52122C0.728855 2.32387 0.835689 2.14252 0.976085 1.98872C1.11648 1.83491 1.28736 1.71203 1.47785 1.62789C1.66834 1.54375 1.87427 1.5002 2.08251 1.5H4.33251C4.69649 1.49642 5.04935 1.62531 5.32533 1.86265C5.60131 2.09999 5.78157 2.42959 5.83251 2.79C5.92748 3.51005 6.1036 4.21705 6.35751 4.8975C6.45842 5.16594 6.48026 5.45769 6.42044 5.73816C6.36062 6.01863 6.22166 6.27608 6.02001 6.48L5.06751 7.4325C6.13518 9.31016 7.68985 10.8648 9.56751 11.9325L10.52 10.98C10.7239 10.7784 10.9814 10.6394 11.2619 10.5796C11.5423 10.5198 11.8341 10.5416 12.1025 10.6425C12.783 10.8964 13.49 11.0725 14.21 11.1675C14.5743 11.2189 14.9071 11.4024 15.1449 11.6831C15.3828 11.9638 15.5091 12.3222 15.5 12.69Z" stroke="black" stroke-linecap="round" stroke-linejoin="round"/>
</svg>
