<svg width="22" height="22" viewBox="0 0 22 22" fill="none" xmlns="http://www.w3.org/2000/svg">
<path fill-rule="evenodd" clip-rule="evenodd" d="M5.7619 1.02381C3.14512 1.02381 1.0238 3.14513 1.0238 5.76191V16.2381C1.0238 18.8549 3.14512 20.9762 5.7619 20.9762H16.2381C18.8549 20.9762 20.9762 18.8549 20.9762 16.2381V5.76191C20.9762 3.14513 18.8549 1.02381 16.2381 1.02381H5.7619ZM0.0238037 5.76191C0.0238037 2.59284 2.59284 0.0238113 5.7619 0.0238113H16.2381C19.4072 0.0238113 21.9762 2.59284 21.9762 5.76191V16.2381C21.9762 19.4072 19.4072 21.9762 16.2381 21.9762H5.7619C2.59284 21.9762 0.0238037 19.4072 0.0238037 16.2381V5.76191ZM11.5866 7.30392C10.8188 7.19006 10.0346 7.32121 9.34559 7.67873C8.65658 8.03624 8.09785 8.60191 7.74886 9.29528C7.39986 9.98865 7.27839 10.7744 7.40171 11.5408C7.52503 12.3072 7.88687 13.0152 8.43576 13.564C8.98464 14.1129 9.69263 14.4748 10.459 14.5981C11.2254 14.7214 12.0112 14.5999 12.7045 14.2509C13.3979 13.902 13.9636 13.3432 14.3211 12.6542C14.6786 11.9652 14.8097 11.181 14.6959 10.4131C14.5797 9.62992 14.2148 8.9048 13.6549 8.34492C13.095 7.78503 12.3699 7.42007 11.5866 7.30392ZM8.88502 6.7911C9.76073 6.33672 10.7574 6.17002 11.7333 6.31474C12.7288 6.46235 13.6504 6.92622 14.362 7.63781C15.0736 8.34941 15.5374 9.271 15.6851 10.2665C15.8298 11.2424 15.6631 12.2391 15.2087 13.1148C14.7543 13.9905 14.0354 14.7006 13.1541 15.1442C12.2729 15.5877 11.2742 15.7421 10.3001 15.5854C9.32609 15.4286 8.42627 14.9688 7.72865 14.2711C7.03103 13.5735 6.57115 12.6737 6.41441 11.6997C6.25767 10.7256 6.41206 9.72694 6.85562 8.84569C7.29918 7.96444 8.00931 7.24549 8.88502 6.7911ZM16.7619 4.7381C16.4858 4.7381 16.2619 4.96195 16.2619 5.2381C16.2619 5.51424 16.4858 5.7381 16.7619 5.7381H16.7719C17.048 5.7381 17.2719 5.51424 17.2719 5.2381C17.2719 4.96195 17.048 4.7381 16.7719 4.7381H16.7619Z" fill="black"/>
</svg>
